HIERARCHY
ROOT hip
{
	OFFSET 0.000000 0.000000 0.000000 
	CHANNELS 6 Xposition Yposition Zposition Xrotation Zrotation Yrotation
	JOINT abdomen
	{
		OFFSET 0.000000 3.402643 0.000000 
		CHANNELS 3 Xrotation Zrotation Yrotation
		JOINT chest
		{
			OFFSET 0.000000 8.438565 -0.680529 
			CHANNELS 3 Xrotation Zrotation Yrotation
			JOINT neck
			{
				OFFSET 0.000000 10.207942 -0.272212 
				CHANNELS 3 Xrotation Zrotation Yrotation
				JOINT head
				{
					OFFSET 0.000000 3.130431 0.000000 
					CHANNELS 3 Xrotation Zrotation Yrotation
					End Site
					{
						OFFSET 0.000000 3.130435 0.000000 
					}
				}
			}
			JOINT lCollar
			{
				OFFSET 3.470700 6.669187 -0.816635 
				CHANNELS 3 Yrotation Zrotation Xrotation
				JOINT lShldr
				{
					OFFSET 3.198488 0.000000 0.000000 
					CHANNELS 3 Zrotation Yrotation Xrotation
					JOINT lForeArm
					{
						OFFSET 10.139888 0.000000 0.000000 
						CHANNELS 3 Yrotation Zrotation Xrotation
						JOINT lHand
						{
							OFFSET 8.370511 0.000000 0.000000 
							CHANNELS 3 Zrotation Yrotation Xrotation
							End Site
							{
								OFFSET 4.083176 0.000000 0.000000 
							}
						}
					}
				}
			}
			JOINT rCollar
			{
				OFFSET -3.470700 6.669187 -0.816635 
				CHANNELS 3 Yrotation Zrotation Xrotation
				JOINT rShldr
				{
					OFFSET -3.198488 0.000000 0.000000 
					CHANNELS 3 Zrotation Yrotation Xrotation
					JOINT rForeArm
					{
						OFFSET -10.139888 0.000000 0.000000 
						CHANNELS 3 Yrotation Zrotation Xrotation
						JOINT rHand
						{
							OFFSET -8.370511 0.000000 0.000000 
							CHANNELS 3 Zrotation Yrotation Xrotation
							End Site
							{
								OFFSET -4.083176 0.000000 0.000000 
							}
						}
					}
				}
			}
		}
	}
	JOINT lThigh
	{
		OFFSET 5.308129 -1.633274 1.361059 
		CHANNELS 3 Xrotation Zrotation Yrotation
		JOINT lShin
		{
			OFFSET -2.041588 -20.007561 0.000000 
			CHANNELS 3 Xrotation Zrotation Yrotation
			JOINT lFoot
			{
				OFFSET 0.000000 -19.190928 -1.224953 
				CHANNELS 3 Xrotation Yrotation Zrotation
				End Site
				{
					OFFSET 0.000000 -2.449906 4.627600 
				}
			}
		}
	}
	JOINT rThigh
	{
		OFFSET -5.308129 -1.633274 1.361059 
		CHANNELS 3 Xrotation Zrotation Yrotation
		JOINT rShin
		{
			OFFSET 2.041588 -20.007561 0.000000 
			CHANNELS 3 Xrotation Zrotation Yrotation
			JOINT rFoot
			{
				OFFSET 0.000000 -19.190928 -1.224953 
				CHANNELS 3 Xrotation Yrotation Zrotation
				End Site
				{
					OFFSET 0.000000 -2.449906 4.627600 
				}
			}
		}
	}
}
MOTION
Frames: 16
Frame Time: 0.016667
3.117139 41.333717 3.676807 -3.407270 9.612200 -22.179399 -19.995501 7.567600 -11.393000 14.264500 5.804910 -4.857380 7.695770 -26.011200 12.418200 14.399900 -3.748480 4.813880 2.000000 -2.000000 0.000000 -114.487999 -61.679901 -93.106598 74.746597 -0.250818 0.131950 0.044692 -0.004348 -138.475006 -2.000000 2.000000 0.000000 88.116203 25.657101 166.434998 -117.412003 0.156400 0.102942 -0.132482 0.137686 163.966995 18.757172 -18.653990 17.344360 -23.696693 3.810280 -1.779975 2.696040 11.855572 0.465897 21.909634 -19.882175 3.643873 -43.992027 -4.334446 2.878536 17.338116 -14.638214 3.510061 
3.146302 41.233791 3.767744 -3.858280 9.198210 -22.199600 -19.983101 7.373060 -11.383700 14.464200 5.486600 -4.831940 7.987350 -25.986099 12.315000 14.527100 -3.747220 4.786050 2.000000 -2.000000 0.000000 65.240799 -117.225998 87.489197 76.533699 -0.246687 0.133007 0.044685 -0.004102 -138.386993 -2.000000 2.000000 0.000000 87.981499 27.258600 166.468002 -119.278000 0.152763 0.100980 -0.127493 0.134576 166.067001 19.881340 -18.662405 17.418447 -24.611259 3.794206 -1.840786 3.143676 11.783275 0.405771 22.885996 -19.603420 3.303855 -44.503826 -4.321582 2.883379 17.595953 -14.393416 3.511767 
3.170870 41.098381 3.878173 -4.384870 8.559230 -22.177299 -20.114700 7.343130 -11.492500 14.689700 5.498570 -4.850510 7.970230 -26.012100 12.248000 14.360300 -3.700830 4.795900 2.000000 -2.000000 0.000000 64.916901 -115.859001 87.313499 78.701698 -0.241635 0.134115 0.044678 -0.003801 -138.279007 -2.000000 2.000000 0.000000 86.274902 28.997299 166.306000 -121.904999 0.147752 0.098018 -0.123248 0.131724 167.893005 21.522734 -18.518873 17.510155 -25.833586 3.761111 -1.905069 3.600808 11.638674 0.245883 24.108114 -19.082607 2.831912 -45.156742 -4.281052 2.924981 17.906656 -14.038213 3.503261 
3.195450 40.962955 3.988590 -4.910350 7.930150 -22.142799 -20.245899 7.303970 -11.599200 14.915200 5.520170 -4.879730 7.942260 -26.038601 12.189200 14.203300 -3.663890 4.793360 2.000000 -2.000000 0.000000 64.583199 -114.491997 87.157303 80.879402 -0.236521 0.135036 0.044671 -0.003501 -138.171997 -2.000000 2.000000 0.000000 84.529297 30.736099 166.085999 -124.541000 0.142865 0.094818 -0.119097 0.128738 169.718994 23.026747 -18.488398 17.643988 -27.376869 3.825502 -1.992563 4.435338 11.430137 0.161632 25.275129 -18.563307 2.374361 -45.692402 -4.226012 2.949223 18.147392 -13.689990 3.464780 
3.229882 40.846832 4.066070 -5.298040 7.390520 -22.313601 -20.188101 7.058510 -11.248900 15.116600 4.919260 -4.686590 8.579920 -25.916901 11.838900 14.477200 -3.651670 4.680010 2.000000 -2.000000 0.000000 64.109001 -112.919998 88.036400 82.715401 -0.232185 0.135660 0.044697 -0.004540 -138.542999 -2.000000 2.000000 0.000000 83.370796 32.894699 165.940002 -125.869003 0.140461 0.093121 -0.114786 0.135182 171.662003 24.225567 -18.517136 17.741648 -28.631905 3.897553 -2.065274 4.983016 11.464695 0.047015 26.052649 -18.174772 2.128071 -46.106762 -4.203267 2.958748 18.419863 -13.316671 3.432851 
3.264324 40.730831 4.143571 -5.685380 6.860940 -22.478001 -20.130899 6.822050 -10.902600 15.326900 4.317960 -4.496020 9.205020 -25.792801 11.504400 14.751000 -3.629800 4.568580 2.000000 -2.000000 0.000000 63.538399 -111.357002 89.003899 84.551300 -0.227831 0.136145 0.044731 -0.005606 -138.923996 -2.000000 2.000000 0.000000 82.183296 35.053299 165.729996 -127.197998 0.138096 0.091370 179.889008 179.867996 -6.394300 25.389154 -18.527775 17.832651 -29.790361 3.951346 -2.135332 5.492027 11.485853 -0.037194 26.827219 -17.774431 1.887195 -46.521523 -4.183537 2.988423 18.647955 -12.991911 3.423136 
3.245967 40.617798 4.269008 -6.206790 6.068010 -22.074100 -20.311300 6.601480 -10.991200 15.474900 4.153590 -4.538700 9.886300 -25.608900 11.224700 14.887300 -3.551710 4.555120 2.000000 -2.000000 0.000000 64.085297 -109.424004 87.733803 86.494698 -0.223208 0.136507 0.044718 -0.005223 -138.787003 -2.000000 2.000000 0.000000 79.747803 37.816799 165.839996 -128.046997 0.136605 0.090221 179.893997 179.871994 -4.275150 27.053825 -18.113909 17.609592 -31.291115 4.020802 -2.200410 6.228577 11.391864 -0.149566 28.156593 -16.909748 1.395429 -46.946068 -4.162879 3.018432 18.678852 -12.673655 3.342987 
3.227623 40.504749 4.394456 -6.727860 5.276120 -21.665600 -20.481501 6.372650 -11.074900 15.612900 3.998790 -4.583730 10.576400 -25.421900 10.944900 15.013600 -3.464180 4.544480 2.000000 -2.000000 0.000000 64.823700 -107.489998 86.268204 88.438004 -0.218576 0.136711 0.044706 -0.004840 -138.649994 -2.000000 2.000000 0.000000 77.215500 40.590302 165.798004 -128.906998 0.135115 0.089036 179.897995 179.876007 -2.146250 28.731499 -17.727480 17.385881 -32.739487 4.114903 -2.274998 6.883210 11.293672 -0.254398 29.415476 -16.043070 0.970464 -47.212513 -4.143622 3.018696 18.586609 -12.373960 3.228788 
3.207234 40.430416 4.484855 -7.035410 4.691130 -21.417801 -20.585800 6.205920 -11.355000 15.897200 3.942050 -4.695940 10.877500 -24.943199 10.967900 14.932500 -3.158090 4.647440 2.000000 -2.000000 0.000000 67.484001 -105.642998 82.712700 89.834503 -0.215244 0.136761 0.044711 -0.005004 -138.709000 -2.000000 2.000000 0.000000 74.841103 43.450401 166.348007 -128.496002 0.135824 0.089604 179.901993 179.889999 -0.124792 29.836012 -17.393787 17.236034 -33.697231 4.190795 -2.337054 7.318339 11.288978 -0.329200 30.242233 -15.412668 0.766056 -47.476929 -4.153965 3.032955 18.586542 -12.219260 3.191532 
3.186855 40.356213 4.575243 -7.362850 4.116290 -21.165501 -20.689800 6.033560 -11.623500 16.191099 3.894950 -4.818580 11.177900 -24.474400 10.989800 14.842000 -2.842310 4.752390 2.000000 -2.000000 0.000000 70.967796 -103.855003 78.366096 91.240799 -0.211677 0.156258 0.044716 -0.005168 -138.766998 -2.000000 2.000000 0.000000 -107.620003 133.669998 -13.247400 -128.095993 0.136520 0.090154 179.906006 179.893997 1.896700 30.861553 -17.029718 17.098988 -34.492027 4.220183 -2.365205 7.642065 11.275603 -0.384375 30.956121 -14.798127 0.601743 -47.487770 -4.138510 3.025642 18.413940 -12.057924 3.119156 
3.126496 40.306709 4.695153 -7.660340 3.435930 -20.725300 -21.043900 5.820280 -11.973000 16.298300 3.983150 -4.983800 11.653900 -23.657600 10.890500 14.662900 -2.363730 4.841560 2.000000 -2.000000 0.000000 78.339104 -101.778999 69.672897 92.715401 -0.207910 0.156127 0.044758 -0.006343 -139.186996 -2.000000 2.000000 0.000000 -112.100998 130.572998 -13.799300 -127.392998 0.137752 0.091107 179.908005 179.897003 3.127170 31.901829 -16.419552 16.878273 -35.195663 4.269762 -2.391915 8.100505 11.389713 -0.444544 31.811234 -13.986888 0.476878 -47.572823 -4.180913 3.035519 18.258778 -11.923921 3.043611 
3.066137 40.257065 4.815062 -7.968330 2.766040 -20.298700 -21.397200 5.607130 -12.322400 16.405500 4.081100 -5.149410 12.116900 -22.844200 10.792200 14.474900 -1.884600 4.937910 2.000000 -2.000000 0.000000 88.824898 -100.008003 57.874500 94.190002 -0.204147 0.155900 0.044808 -0.007491 -139.598007 -2.000000 2.000000 0.000000 -116.941002 127.503998 -14.792600 -126.698997 0.138978 0.092033 179.910004 179.899994 4.367400 32.979061 -15.844267 16.611727 -35.980839 4.382679 -2.430367 8.610367 11.552600 -0.566524 32.594547 -13.184442 0.387041 -47.502274 -4.193577 3.011983 18.017323 -11.804049 2.967244 
2.995015 40.255135 4.910337 -8.082300 2.223810 -19.924801 -21.880600 5.385170 -11.762300 15.955900 3.942370 -4.936060 13.176700 -22.518101 9.792660 14.710000 -2.008400 4.613660 2.000000 -2.000000 0.000000 91.370003 -98.744202 54.828098 94.756401 -0.202703 0.155787 0.044907 -0.009375 -140.270996 -2.000000 2.000000 0.000000 -122.154999 126.420998 -18.686501 -126.376999 0.139552 0.092458 179.910995 179.901001 4.972860 33.515694 -15.226218 16.500689 -36.199020 4.456432 -2.446153 8.658072 11.591185 -0.570026 32.982590 -12.501142 0.481087 -47.234512 -4.226738 3.007508 17.651564 -11.743720 2.888437 
2.923894 40.253212 5.005622 -8.206730 1.691490 -19.560200 -22.370899 5.158150 -11.215500 15.506400 3.803580 -4.710790 14.231700 -22.178101 8.810990 14.935300 -2.132030 4.298530 2.000000 -2.000000 0.000000 94.856796 -97.498100 50.863499 95.313103 -0.201285 0.155662 0.045029 -0.011258 -140.945007 -2.000000 2.000000 0.000000 52.394199 54.447800 157.164993 -126.055000 0.140128 0.092880 179.912003 179.901993 5.568580 34.066544 -14.634206 16.372578 -36.473152 4.555695 -2.461702 8.739888 11.612785 -0.570857 33.361362 -11.823732 0.588311 -46.938103 -4.252704 3.009927 17.301449 -11.740010 2.827704 
2.792661 40.319180 5.146079 -8.097550 1.218200 -19.157600 -22.799500 4.875530 -10.819400 15.487600 3.667280 -4.543780 15.321700 -21.325701 7.981000 15.188400 -1.919940 4.037770 2.000000 -2.000000 0.000000 105.704002 -95.817497 38.998600 95.811096 -0.200018 0.155538 0.045307 -0.014693 -142.175995 -2.000000 2.000000 0.000000 44.620701 56.226898 151.817001 -124.541000 0.142865 0.094818 179.914001 179.904007 6.418180 34.154537 -13.837811 16.193041 -36.117683 4.712899 -2.427155 8.226762 11.528824 -0.475888 33.323456 -11.103608 0.909792 -46.156109 -4.310995 2.957665 16.526131 -11.723141 2.682489 
2.661427 40.385155 5.286545 -7.988960 0.744656 -18.747101 -23.226999 4.591560 -10.426600 15.468800 3.540720 -4.367170 16.401699 -20.448500 7.161100 15.431800 -1.717800 3.777240 2.000000 -2.000000 0.000000 124.175003 -94.536102 19.535900 96.299400 -0.198776 0.155406 0.045660 -0.018120 -143.406006 -2.000000 2.000000 0.000000 36.235901 57.567200 145.835999 -123.028000 0.145653 0.096682 179.914993 179.895996 7.258050 34.178394 -13.035433 16.060156 -35.695042 4.853850 -2.415164 7.695191 11.426613 -0.393173 33.370750 -10.372488 1.191685 -45.550735 -4.378384 2.938315 15.858956 -11.732951 2.568530 
